# xmcd CD database file
#
# Track frame offsets:
#	150
#	15316
#	37423
#	55620
#	72175
#	93162
#	124342
#	146756
#	163021
#	188238
#	197060
#	222172
#	247890
#
# Disc length: 3533 seconds
#
# Revision: 1
# Processed by: cddbd v1.5.1PL0 Copyright (c) Steve Scherf et al.
# Submitted via: CDex 1.51
#
DISCID=b70dcb0d
DTITLE=Enrico Rava - Rava plays Rava
DYEAR=1999
DGENRE=Jazz
TTITLE0=Le Solite Cose
TTITLE1=Bandoleros
TTITLE2=Suzie Wong (I)
TTITLE3=Grrr...
TTITLE4=Sola
TTITLE5=Certi Angoli Segreti
TTITLE6=Tomo Y Recuerdo
TTITLE7=Jazz at the Club Club
TTITLE8=Fragile
TTITLE9=Lady Orlando
TTITLE10=Parks
TTITLE11=Thank You, Come Again
TTITLE12=Suzie Wong (II)
EXTD=YEAR: 1999
EXTT0=
EXTT1=
EXTT2=
EXTT3=
EXTT4=
EXTT5=
EXTT6=
EXTT7=
EXTT8=
EXTT9=
EXTT10=
EXTT11=
EXTT12=
PLAYORDER=
